<?xml version="1.0" encoding="UTF-8" standalone="no"?>
<svg
   version="1.2"
   viewBox="0 0 26 32"
   width="26"
   height="32"
   id="svg1964"
   sodipodi:docname="HomeA.svg"
   inkscape:version="1.2 (dc2aedaf03, 2022-05-15)"
   xmlns:inkscape="http://www.inkscape.org/namespaces/inkscape"
   xmlns:sodipodi="http://sodipodi.sourceforge.net/DTD/sodipodi-0.dtd"
   xmlns="http://www.w3.org/2000/svg"
   xmlns:svg="http://www.w3.org/2000/svg">
  <defs
     id="defs1968" />
  <sodipodi:namedview
     id="namedview1966"
     pagecolor="#505050"
     bordercolor="#eeeeee"
     borderopacity="1"
     inkscape:showpageshadow="0"
     inkscape:pageopacity="0"
     inkscape:pagecheckerboard="0"
     inkscape:deskcolor="#505050"
     showgrid="false"
     inkscape:zoom="26.15625"
     inkscape:cx="13.017921"
     inkscape:cy="16.019116"
     inkscape:window-width="1920"
     inkscape:window-height="1017"
     inkscape:window-x="-8"
     inkscape:window-y="-8"
     inkscape:window-maximized="1"
     inkscape:current-layer="svg1964" />
  <style
     id="style1960">.a{fill:#d8d8d8}</style>
  <path
     class="a"
     d="m13 3.7l10 10v15.3h-5v-7c0-1.1-0.9-2-2-2h-6c-1.1 0-2 0.9-2 2v7h-5v-15.3l10-10m0.9-3.3c-0.5-0.5-1.3-0.5-1.8 0l-11.5 11.5c-0.4 0.4-0.6 0.9-0.6 1.4v16.7c0 1.1 0.9 2 2 2h7c1.1 0 2-0.9 2-2v-7h4v7c0 1.1 0.9 2 2 2h7c1.1 0 2-0.9 2-2v-16.7c0-0.5-0.2-1-0.6-1.4z"
     id="path1962"
     style="fill:#0022ff;fill-opacity:1" />
</svg>
