<svg version="1.2" xmlns="http://www.w3.org/2000/svg" viewBox="0 0 27 32" width="27" height="32"><style>.a{fill:#d8d8d8}</style><path class="a" d="m25 32h-23c-1.1 0-2-0.9-2-2v-21c0-1.1 0.9-2 2-2h5.5c0.8 0 1.5 0.7 1.5 1.5 0 0.8-0.7 1.5-1.5 1.5h-4.5v19h21v-19h-4.5c-0.8 0-1.5-0.7-1.5-1.5 0-0.8 0.7-1.5 1.5-1.5h5.5c1.1 0 2 0.9 2 2v21c0 1.1-0.9 2-2 2zm-5-15.5c0 0.4-0.2 0.8-0.4 1.1l-5 5c-0.3 0.2-0.7 0.4-1.1 0.4-0.4 0-0.8-0.2-1.1-0.4l-5-5c-0.2-0.3-0.4-0.7-0.4-1.1 0-0.8 0.7-1.5 1.5-1.5 0.4 0 0.8 0.2 1.1 0.4l2.4 2.5v-16.4c0-0.8 0.7-1.5 1.5-1.5 0.8 0 1.5 0.7 1.5 1.5v16.4l2.4-2.5c0.3-0.2 0.7-0.4 1.1-0.4 0.8 0 1.5 0.7 1.5 1.5z"/></svg>