<?xml version="1.0" encoding="UTF-8" standalone="no"?>
<svg
   version="1.2"
   viewBox="0 0 27 32"
   width="27"
   height="32"
   id="svg2454"
   sodipodi:docname="InA.svg"
   inkscape:version="1.2 (dc2aedaf03, 2022-05-15)"
   xmlns:inkscape="http://www.inkscape.org/namespaces/inkscape"
   xmlns:sodipodi="http://sodipodi.sourceforge.net/DTD/sodipodi-0.dtd"
   xmlns="http://www.w3.org/2000/svg"
   xmlns:svg="http://www.w3.org/2000/svg">
  <defs
     id="defs2458" />
  <sodipodi:namedview
     id="namedview2456"
     pagecolor="#505050"
     bordercolor="#eeeeee"
     borderopacity="1"
     inkscape:showpageshadow="0"
     inkscape:pageopacity="0"
     inkscape:pagecheckerboard="0"
     inkscape:deskcolor="#505050"
     showgrid="false"
     inkscape:zoom="26.15625"
     inkscape:cx="13.514934"
     inkscape:cy="16.019116"
     inkscape:window-width="1920"
     inkscape:window-height="1017"
     inkscape:window-x="-8"
     inkscape:window-y="-8"
     inkscape:window-maximized="1"
     inkscape:current-layer="svg2454" />
  <style
     id="style2450">.a{fill:#d8d8d8}</style>
  <path
     class="a"
     d="m25 32h-23c-1.1 0-2-0.9-2-2v-21c0-1.1 0.9-2 2-2h5.5c0.8 0 1.5 0.7 1.5 1.5 0 0.8-0.7 1.5-1.5 1.5h-4.5v19h21v-19h-4.5c-0.8 0-1.5-0.7-1.5-1.5 0-0.8 0.7-1.5 1.5-1.5h5.5c1.1 0 2 0.9 2 2v21c0 1.1-0.9 2-2 2zm-5-15.5c0 0.4-0.2 0.8-0.4 1.1l-5 5c-0.3 0.2-0.7 0.4-1.1 0.4-0.4 0-0.8-0.2-1.1-0.4l-5-5c-0.2-0.3-0.4-0.7-0.4-1.1 0-0.8 0.7-1.5 1.5-1.5 0.4 0 0.8 0.2 1.1 0.4l2.4 2.5v-16.4c0-0.8 0.7-1.5 1.5-1.5 0.8 0 1.5 0.7 1.5 1.5v16.4l2.4-2.5c0.3-0.2 0.7-0.4 1.1-0.4 0.8 0 1.5 0.7 1.5 1.5z"
     id="path2452"
     style="fill:#0022ff;fill-opacity:1" />
</svg>
