<?xml version="1.0" encoding="UTF-8" standalone="no"?>
<svg
   version="1.2"
   viewBox="0 0 32 32"
   width="32"
   height="32"
   id="svg6"
   sodipodi:docname="Search.svg"
   inkscape:version="1.2 (dc2aedaf03, 2022-05-15)"
   xmlns:inkscape="http://www.inkscape.org/namespaces/inkscape"
   xmlns:sodipodi="http://sodipodi.sourceforge.net/DTD/sodipodi-0.dtd"
   xmlns="http://www.w3.org/2000/svg"
   xmlns:svg="http://www.w3.org/2000/svg">
  <defs
     id="defs10" />
  <sodipodi:namedview
     id="namedview8"
     pagecolor="#505050"
     bordercolor="#eeeeee"
     borderopacity="1"
     inkscape:showpageshadow="0"
     inkscape:pageopacity="0"
     inkscape:pagecheckerboard="0"
     inkscape:deskcolor="#505050"
     showgrid="false"
     inkscape:zoom="26.15625"
     inkscape:cx="14.241338"
     inkscape:cy="16.783751"
     inkscape:window-width="1920"
     inkscape:window-height="1017"
     inkscape:window-x="-8"
     inkscape:window-y="-8"
     inkscape:window-maximized="1"
     inkscape:current-layer="svg6" />
  <style
     id="style2">.a{fill:#d8d8d8}</style>
  <g
     id="g2530">
    <path
       id="path846"
       style="display:inline;fill:#0022ff;fill-opacity:0;stroke:#d8d8d8;stroke-width:2.68724;stroke-linecap:round;stroke-linejoin:round;stroke-miterlimit:0"
       d="M 30.655642,12.015192 A 10.670834,10.670834 0 0 1 19.984808,22.686026 10.670834,10.670834 0 0 1 9.3139744,12.015192 10.670834,10.670834 0 0 1 19.984808,1.3443584 10.670834,10.670834 0 0 1 30.655642,12.015192 Z" />
    <path
       id="rect2314"
       style="display:inline;fill:#d8d8d8;stroke-width:5.22964;stroke-linecap:round;stroke-linejoin:round;stroke-miterlimit:0"
       transform="matrix(0.71382453,0.7003246,-0.71382453,0.7003246,0,0)"
       d="m 22.846549,4.6052508 c 0.877903,0 1.584661,0.7125998 1.584661,1.5977574 V 20.594173 c 0,0.885158 -0.706758,1.597757 -1.584661,1.597757 -0.877902,0 -1.58466,-0.712599 -1.58466,-1.597757 V 6.2030082 c 0,-0.8851576 0.706758,-1.5977574 1.58466,-1.5977574 z" />
  </g>
</svg>
